<svg xmlns="http://www.w3.org/2000/svg" viewBox="0 0 60 45"><rect width="60" height="45" fill="#fff"/><rect y="0.0" width="60" height="3.4615384615384617" fill="#B22234"/><rect y="6.923076923076923" width="60" height="3.4615384615384617" fill="#B22234"/><rect y="13.846153846153847" width="60" height="3.4615384615384617" fill="#B22234"/><rect y="20.76923076923077" width="60" height="3.4615384615384617" fill="#B22234"/><rect y="27.692307692307693" width="60" height="3.4615384615384617" fill="#B22234"/><rect y="34.61538461538461" width="60" height="3.4615384615384617" fill="#B22234"/><rect y="41.53846153846154" width="60" height="3.4615384615384617" fill="#B22234"/><rect width="24" height="24.230769230769234" fill="#3C3B6E"/><circle cx="2.0" cy="2.0" r="0.7" fill="#fff"/><circle cx="6.5" cy="2.0" r="0.7" fill="#fff"/><circle cx="11.0" cy="2.0" r="0.7" fill="#fff"/><circle cx="15.5" cy="2.0" r="0.7" fill="#fff"/><circle cx="20.0" cy="2.0" r="0.7" fill="#fff"/><circle cx="4.2" cy="7.5" r="0.7" fill="#fff"/><circle cx="8.8" cy="7.5" r="0.7" fill="#fff"/><circle cx="13.2" cy="7.5" r="0.7" fill="#fff"/><circle cx="17.8" cy="7.5" r="0.7" fill="#fff"/><circle cx="2.0" cy="13.0" r="0.7" fill="#fff"/><circle cx="6.5" cy="13.0" r="0.7" fill="#fff"/><circle cx="11.0" cy="13.0" r="0.7" fill="#fff"/><circle cx="15.5" cy="13.0" r="0.7" fill="#fff"/><circle cx="20.0" cy="13.0" r="0.7" fill="#fff"/><circle cx="4.2" cy="18.5" r="0.7" fill="#fff"/><circle cx="8.8" cy="18.5" r="0.7" fill="#fff"/><circle cx="13.2" cy="18.5" r="0.7" fill="#fff"/><circle cx="17.8" cy="18.5" r="0.7" fill="#fff"/></svg>